<svg id="Group_5618" data-name="Group 5618" xmlns="http://www.w3.org/2000/svg" width="26.086" height="26.086" viewBox="0 0 26.086 26.086">
  <path id="Path_8408" data-name="Path 8408" d="M467.934,229.717a13.043,13.043,0,1,1,13.043-13.043A13.058,13.058,0,0,1,467.934,229.717Zm0-24.846a11.8,11.8,0,1,0,11.8,11.8A11.817,11.817,0,0,0,467.934,204.87Zm4.4,6.512a.965.965,0,1,0,.965.965A.965.965,0,0,0,472.332,211.382Zm-4.291,1.238a4.054,4.054,0,1,0,4.055,4.055A4.059,4.059,0,0,0,468.041,212.619Zm0,6.652a2.6,2.6,0,1,1,2.6-2.6A2.6,2.6,0,0,1,468.041,219.271Zm8.181-5.967a4.945,4.945,0,0,0-4.945-4.945H464.75A4.945,4.945,0,0,0,459.8,213.3v6.527a4.945,4.945,0,0,0,4.945,4.945h6.527a4.945,4.945,0,0,0,4.945-4.945Zm-1.549,6.527a3.4,3.4,0,0,1-3.4,3.4H464.75a3.4,3.4,0,0,1-3.4-3.4V213.3a3.4,3.4,0,0,1,3.4-3.4h6.527a3.4,3.4,0,0,1,3.4,3.4Z" transform="translate(-454.891 -203.631)" fill="#b7ccef"/>
</svg>
